<svg id="content" xmlns="http://www.w3.org/2000/svg" viewBox="0 0 114.46 102.88">
  <defs>
    <style>
      .cls-1 {
        fill: #eb9884;
      }

      .cls-2 {
        fill: #16110d;
      }

      .cls-3 {
        fill: #fec;
      }
    </style>
  </defs>
  <title>Artboard 28</title>
  <path class="cls-1" d="M90.13,53.89V52.81h-.67l-.14-.09L62,36.93a5.21,5.21,0,0,0-4.68.2L22.37,57.43a3.44,3.44,0,0,0-.62.46h-.52v2.38A1.39,1.39,0,0,0,22,61.41L49.38,77.2A5.21,5.21,0,0,0,54.06,77L89,56.7a2,2,0,0,0,1.14-1.47V53.89Z"/>
  <path class="cls-2" d="M90.13,55.22V52.8h-.67l-.14-.09L79.18,46.85a7.3,7.3,0,0,0-1.57.14c-1.44.48-24.69,14-25.16,16s-1.34,12.32-1.34,12.32v2.29a5.59,5.59,0,0,0,3-.65L89,56.69A2,2,0,0,0,90.13,55.22Z"/>
  <path class="cls-2" d="M51.41,77.91a4.43,4.43,0,0,1-2.15-.5L21.92,61.62A1.6,1.6,0,0,1,21,60.28V57.65h.67a3.9,3.9,0,0,1,.59-.43l34.93-20.3a5.46,5.46,0,0,1,4.92-.2L89.44,52.51l.1.06h.83v2.66a2.17,2.17,0,0,1-1.26,1.68L54.18,77.22A5.75,5.75,0,0,1,51.41,77.91ZM21.47,58.14v2.13a1.18,1.18,0,0,0,.69.94L49.5,77a4.92,4.92,0,0,0,4.44-.19L88.87,56.49a1.78,1.78,0,0,0,1-1.27V53.05h-.5l-.06,0-.13-.08L61.86,37.14a5,5,0,0,0-4.44.19L22.49,57.64a2.84,2.84,0,0,0-.57.43l-.07.07Z"/>
  <path class="cls-1" d="M49.38,74.91,22,59.12c-1.2-.69-1.05-1.9.33-2.7L57.3,36.11A5.24,5.24,0,0,1,62,35.92L89.32,51.71c1.2.69,1.05,1.9-.33,2.7L54.06,74.71A5.21,5.21,0,0,1,49.38,74.91Z"/>
  <path class="cls-2" d="M51.41,75.61a4.43,4.43,0,0,1-2.15-.49L21.92,59.33A1.63,1.63,0,0,1,21,58a2.17,2.17,0,0,1,1.26-1.74l34.93-20.3a5.46,5.46,0,0,1,4.92-.2L89.44,51.5a1.63,1.63,0,0,1,.93,1.38,2.17,2.17,0,0,1-1.26,1.74L54.18,74.92A5.64,5.64,0,0,1,51.41,75.61ZM60,35.69a5.3,5.3,0,0,0-2.53.63L22.49,56.63a1.69,1.69,0,0,0-1,1.32,1.17,1.17,0,0,0,.69,1L49.5,74.7a5,5,0,0,0,4.44-.2L88.87,54.2a1.72,1.72,0,0,0,1-1.32,1.15,1.15,0,0,0-.69-1L61.86,36.13A4,4,0,0,0,60,35.69Z"/>
  <path class="cls-2" d="M52,73.37l-.11-.06L25.51,58.08,58.73,38.76l.12.06L85.22,54.05Z"/>
  <polygon class="cls-3" points="52.13 71.84 25.3 56.34 59.18 36.64 86.02 52.13 52.13 71.84"/>
  <path class="cls-2" d="M52.13,72.12,52,72.05,24.82,56.34l34.36-20,.12.07L86.5,52.14ZM25.78,56.34,52.13,71.56,85.54,52.14,59.18,36.92Z"/>
  <path class="cls-2" d="M81.75,43.11l0,.11L79,41.64l-.15.1c-.77.45-1.22,1.16-2,.72s-1.57-.6-.8-1l.18-.09.25-2.06-1.06-.36-.17,1.86-3-3c-.53-.31-1.43-.16-1.61.26l-.38.94-.35,0v2.26h0a.5.5,0,0,0,.28.36l8.3,4.8a1.52,1.52,0,0,0,.89.15l3-.39c.49-.07.77-.32.75-.57V43.32Z"/>
  <path class="cls-2" d="M79.16,46.74a1.72,1.72,0,0,1-.8-.19l-8.3-4.8a1,1,0,0,1-.28-.24l-.12.06V38.64l.43,0,.32-.77a1,1,0,0,1,.59-.48,1.8,1.8,0,0,1,1.37.1l0,0,2.65,2.66.14-1.63,1.56.55V41.7l-.43-.15-.16.08a.61.61,0,0,0-.16.11,4.31,4.31,0,0,0,.44.23c.16.08.34.17.52.28.41.23.67.06,1.17-.31a5.35,5.35,0,0,1,.58-.4l.09-.06.13-.1.17,0,2.44,1.41,1.69.25a.16.16,0,0,1,.15.17v2.27c0,.39-.36.73-1,.81l-3,.39Zm-9-5.59h0c0,.05.06.12.16.17l8.3,4.8a1.27,1.27,0,0,0,.74.12l3-.39c.36,0,.55-.21.54-.31v-2l-1-.14,0,.22L79,41.93l0,0a5.67,5.67,0,0,0-.54.37c-.49.37-1,.75-1.7.34l-.49-.25c-.41-.2-.73-.36-.74-.65s.23-.43.43-.55c0,0,.32.19.34.18V39.52l-.64-.31-.18,2.1L72.1,37.94a1.29,1.29,0,0,0-.95-.06.5.5,0,0,0-.29.22l-.46,1.1-.26,0Z"/>
  <path class="cls-3" d="M82.88,43,79,40.72l-.15.1a3.05,3.05,0,0,1-2.79,0,.85.85,0,0,1,0-1.61l.18-.09-4-2.3c-.53-.31-1.43-.16-1.61.26l-.71,1.73c-.08.19,0,.39.26.52l8.3,4.8a1.52,1.52,0,0,0,.89.15l3-.39C83.15,43.79,83.41,43.27,82.88,43Z"/>
  <path class="cls-2" d="M79.16,44.53a1.72,1.72,0,0,1-.8-.19l-8.3-4.8a.64.64,0,0,1-.36-.82L70.41,37A1,1,0,0,1,71,36.5a1.75,1.75,0,0,1,1.37.11l4.4,2.54-.43.19-.16.08c-.29.17-.46.38-.46.59a.77.77,0,0,0,.46.6,2.86,2.86,0,0,0,2.55,0l.09-.06.13-.1.17.06L83,42.75a.68.68,0,0,1,.39.71,1,1,0,0,1-1,.67l-3,.39ZM71.57,36.9a1.42,1.42,0,0,0-.42.06.46.46,0,0,0-.29.21l-.72,1.74c0,.09.11.19.16.22l8.3,4.79a1.27,1.27,0,0,0,.74.12l3-.39c.36,0,.52-.2.54-.29s-.12-.17-.16-.2L79,41l0,0a3.33,3.33,0,0,1-3,0,1.21,1.21,0,0,1-.7-1,1.12,1.12,0,0,1,.52-.89L72.12,37A1.07,1.07,0,0,0,71.57,36.9Z"/>
  <path class="cls-3" d="M83.34,50.67,61.84,38.25c-.52-.29-.45-.81.14-1.16l1.33-.77a2.26,2.26,0,0,1,2-.08l21.5,12.41c.52.3.45.82-.14,1.17l-1.33.77A2.26,2.26,0,0,1,83.34,50.67Z"/>
  <path class="cls-2" d="M84.22,51.11a2,2,0,0,1-1-.23L61.72,38.46a.81.81,0,0,1-.47-.71,1.06,1.06,0,0,1,.61-.87l1.33-.77A2.51,2.51,0,0,1,65.45,36L87,48.45a.8.8,0,0,1,.47.71,1.06,1.06,0,0,1-.61.87l-1.33.77A2.58,2.58,0,0,1,84.22,51.11Zm-.76-.65a2,2,0,0,0,1.78-.08l1.33-.77c.23-.13.37-.3.37-.45a.38.38,0,0,0-.23-.3L65.21,36.45a2,2,0,0,0-1.78.08l-1.33.77c-.23.13-.37.3-.37.45a.38.38,0,0,0,.23.3Z"/>
  <path class="cls-1" d="M76.61,47.81,65.85,41.6c-.25-.15-.22-.41.08-.58l.66-.39a1.13,1.13,0,0,1,1,0L78.35,46.8c.26.15.23.41-.07.58l-.67.39A1.11,1.11,0,0,1,76.61,47.81Z"/>
  <path class="cls-2" d="M77.05,48.15a1.1,1.1,0,0,1-.56-.13L65.73,41.81a.55.55,0,0,1-.29-.46.63.63,0,0,1,.37-.54l.66-.38a1.35,1.35,0,0,1,1.25,0l10.75,6.21a.54.54,0,0,1,.3.46.65.65,0,0,1-.37.54l-.67.38A1.36,1.36,0,0,1,77.05,48.15Zm-9.89-7.42a1,1,0,0,0-.45.11l-.66.39c-.1.06-.13.11-.13.12l0,0L76.73,47.6a.86.86,0,0,0,.76,0l.67-.39c.1-.05.12-.11.12-.12a.11.11,0,0,0,0,0L67.48,40.8A.63.63,0,0,0,67.16,40.73Z"/>
  <ellipse class="cls-2" cx="55.68" cy="54.05" rx="2.3" ry="1.33"/>
  <path class="cls-2" d="M60.86,50.71a11.26,11.26,0,0,0-10.35,0,4,4,0,0,0-2.33,3.34,4,4,0,0,0,2.33,3.34,11.26,11.26,0,0,0,10.35,0,4,4,0,0,0,2.32-3.34A4,4,0,0,0,60.86,50.71Zm-.62,5.62a10.1,10.1,0,0,1-9.12,0,2.87,2.87,0,0,1-1.71-2.28,2.87,2.87,0,0,1,1.71-2.28,10.08,10.08,0,0,1,9.12,0A2.87,2.87,0,0,1,62,54.05,2.87,2.87,0,0,1,60.24,56.33Z"/>
  <path class="cls-1" d="M57.31,51.87a3.6,3.6,0,0,0-3.26,0,1,1,0,0,0,0,1.88,3.6,3.6,0,0,0,3.26,0A1,1,0,0,0,57.31,51.87Z"/>
  <path class="cls-1" d="M60.86,49.47a11.29,11.29,0,0,0-10.35,0,4,4,0,0,0-2.33,3.34,4,4,0,0,0,2.33,3.35,11.34,11.34,0,0,0,10.35,0,4,4,0,0,0,2.32-3.35A4,4,0,0,0,60.86,49.47Zm-.62,5.62a10.1,10.1,0,0,1-9.12,0,2.84,2.84,0,0,1-1.71-2.28,2.84,2.84,0,0,1,1.71-2.27,10.08,10.08,0,0,1,9.12,0A2.84,2.84,0,0,1,62,52.81,2.84,2.84,0,0,1,60.24,55.09Z"/>
  <path class="cls-1" d="M54.71,15.27c-4.86,2.24-9.21,9-9.63,15.29a9.14,9.14,0,0,0,1.32,5.92l7,13.27,3.35,1.64c.3-.69,5.2-24,5.43-24.7h0c.52-1.64,4.1-2.67,4.13-4.27C66.41,16.59,59.45,13.09,54.71,15.27Zm-.61,15c-1.92.95-3.38-.22-3.26-2.6a7.4,7.4,0,0,1,3.61-5.85c1.84-.89,3.27.24,3.2,2.52A7.47,7.47,0,0,1,54.1,30.23Z"/>
  <path class="cls-3" d="M55.32,16.47c-4.86,2.23-9.22,9-9.63,15.28a11.81,11.81,0,0,0,.2,3.22c5.55,3.34,9.7,3.14,14,6.1,1.35-6.27,2.74-12.82,2.86-13.19C63.31,26.24,66,25,66,23.42A7.55,7.55,0,0,0,55.32,16.47Zm-.62,15c-1.91,1-3.38-.21-3.26-2.59A7.42,7.42,0,0,1,55.05,23c1.85-.88,3.28.24,3.2,2.53A7.39,7.39,0,0,1,54.7,31.42Z"/>
  <path class="cls-2" d="M56.94,51.89,53.13,50l-.06-.11-7-13.27a9.54,9.54,0,0,1-1.36-6.12c.42-6.29,4.83-13.28,9.85-15.59h0A8.92,8.92,0,0,1,63,15.8a7.74,7.74,0,0,1,3.71,6.63c0,1-1.12,1.79-2.19,2.52-.86.59-1.75,1.2-2,1.85-.09.28-1,4.53-2,9-1.92,8.93-3.29,15.29-3.47,15.7Zm-3.27-2.42,2.85,1.39c.45-1.81,2.09-9.45,3.32-15.17,1.17-5.47,1.89-8.83,2-9.11.29-.9,1.29-1.58,2.25-2.24s1.86-1.27,1.87-1.92a7,7,0,0,0-3.38-6,8.18,8.18,0,0,0-7.69-.81h0c-4.8,2.2-9,8.92-9.42,15a8.8,8.8,0,0,0,1.25,5.68Zm-.84-18.54a2.12,2.12,0,0,1-1.19-.34,3.22,3.22,0,0,1-1.17-3,7.68,7.68,0,0,1,3.82-6.17,2.54,2.54,0,0,1,2.55,0A3.18,3.18,0,0,1,58,24.32a7.85,7.85,0,0,1-3.76,6.24h0A3.17,3.17,0,0,1,52.83,30.93Zm2.82-9.08a2.39,2.39,0,0,0-1,.26,7,7,0,0,0-3.39,5.54A2.52,2.52,0,0,0,52,30a1.89,1.89,0,0,0,1.89-.07,7,7,0,0,0,3.35-5.61,2.47,2.47,0,0,0-.84-2.22A1.43,1.43,0,0,0,55.65,21.85Z"/>
  <path class="cls-2" d="M66.39,23.43c.1-5.84-3.58-8.7-8.32-6.52s-9.22,9-9.63,15.29a9.11,9.11,0,0,0,1.31,5.91l7,13.28,8-21a20.17,20.17,0,0,0,.79-2.08h0A17.13,17.13,0,0,0,66.39,23.43Z"/>
  <path class="cls-2" d="M56.94,51.89l-.45-.22L49.43,38.29a9.4,9.4,0,0,1-1.36-6.12c.42-6.29,4.83-13.29,9.84-15.6,2.25-1,4.38-1,6,.05,1.88,1.23,2.89,3.65,2.84,6.81h0a17.28,17.28,0,0,1-.88,5,21.85,21.85,0,0,1-.8,2.12ZM61.1,16.55a7,7,0,0,0-2.88.69c-4.79,2.21-9,8.93-9.41,15a8.74,8.74,0,0,0,1.24,5.68L56.7,50.49l7.69-20.21a19.47,19.47,0,0,0,.79-2.07A16.78,16.78,0,0,0,66,23.42c0-2.86-.86-5.11-2.5-6.18A4.36,4.36,0,0,0,61.1,16.55Z"/>
  <path class="cls-1" d="M57,36.43,53.47,34c-.5-.34-.46-1.34.08-2.23h0c.54-.89,1.39-1.34,1.89-1L57.24,32l3.31-6.73c.47-.93,1.31-1.52,1.88-1.31h0c.57.21.66,1.13.19,2.06l-5,10C57.5,36.36,57.2,36.54,57,36.43Z"/>
  <path class="cls-2" d="M55.21,82.74a.36.36,0,0,1,0,.69,1.31,1.31,0,0,1-1.19,0,.36.36,0,0,1,0-.69A1.31,1.31,0,0,1,55.21,82.74Z"/>
  <path class="cls-2" d="M58.33,80.94a.36.36,0,0,1,0,.69,1.31,1.31,0,0,1-1.19,0,.36.36,0,0,1,0-.69A1.31,1.31,0,0,1,58.33,80.94Z"/>
  <path class="cls-2" d="M61.45,79.14a.36.36,0,0,1,0,.69,1.31,1.31,0,0,1-1.19,0,.36.36,0,0,1,0-.69A1.31,1.31,0,0,1,61.45,79.14Z"/>
  <path class="cls-2" d="M64.56,77.34a.36.36,0,0,1,0,.69,1.31,1.31,0,0,1-1.19,0,.36.36,0,0,1,0-.69A1.31,1.31,0,0,1,64.56,77.34Z"/>
  <path class="cls-2" d="M67.68,75.55c.33.19.33.49,0,.68a1.31,1.31,0,0,1-1.19,0c-.33-.19-.33-.49,0-.68A1.31,1.31,0,0,1,67.68,75.55Z"/>
  <path class="cls-2" d="M70.8,73.75c.33.19.33.49,0,.68a1.31,1.31,0,0,1-1.19,0c-.33-.19-.33-.49,0-.68A1.31,1.31,0,0,1,70.8,73.75Z"/>
  <ellipse class="cls-2" cx="73.32" cy="72.29" rx="0.84" ry="0.49"/>
  <ellipse class="cls-2" cx="76.44" cy="70.49" rx="0.84" ry="0.49"/>
  <ellipse class="cls-2" cx="79.56" cy="68.69" rx="0.84" ry="0.49"/>
  <path class="cls-2" d="M83.27,66.55c.33.19.33.49,0,.68a1.31,1.31,0,0,1-1.19,0c-.33-.19-.33-.49,0-.68A1.31,1.31,0,0,1,83.27,66.55Z"/>
  <path class="cls-2" d="M86.39,64.75a.36.36,0,0,1,0,.68,1.27,1.27,0,0,1-1.2,0c-.33-.19-.33-.49,0-.68A1.33,1.33,0,0,1,86.39,64.75Z"/>
  <path class="cls-2" d="M89.5,63a.36.36,0,0,1,0,.69,1.31,1.31,0,0,1-1.19,0,.36.36,0,0,1,0-.69A1.31,1.31,0,0,1,89.5,63Z"/>
  <path class="cls-2" d="M49,82.74a.36.36,0,0,1,0,.69,1.31,1.31,0,0,1-1.19,0,.36.36,0,0,1,0-.69A1.31,1.31,0,0,1,49,82.74Z"/>
  <path class="cls-2" d="M52.1,80.94a.36.36,0,0,1,0,.69,1.33,1.33,0,0,1-1.2,0,.36.36,0,0,1,0-.69A1.33,1.33,0,0,1,52.1,80.94Z"/>
  <ellipse class="cls-2" cx="54.62" cy="79.49" rx="0.84" ry="0.49"/>
  <ellipse class="cls-2" cx="57.73" cy="77.69" rx="0.84" ry="0.49"/>
  <ellipse class="cls-2" cx="60.85" cy="75.89" rx="0.84" ry="0.49"/>
  <path class="cls-2" d="M64.56,73.75c.33.19.33.49,0,.68a1.31,1.31,0,0,1-1.19,0c-.33-.19-.33-.49,0-.68A1.31,1.31,0,0,1,64.56,73.75Z"/>
  <path class="cls-2" d="M67.68,72c.33.19.33.49,0,.68a1.31,1.31,0,0,1-1.19,0c-.33-.19-.33-.49,0-.68A1.31,1.31,0,0,1,67.68,72Z"/>
  <path class="cls-2" d="M70.8,70.15c.33.19.33.49,0,.68a1.31,1.31,0,0,1-1.19,0c-.33-.19-.33-.49,0-.68A1.31,1.31,0,0,1,70.8,70.15Z"/>
  <path class="cls-2" d="M73.92,68.35c.33.19.33.49,0,.68a1.33,1.33,0,0,1-1.2,0,.36.36,0,0,1,0-.68A1.33,1.33,0,0,1,73.92,68.35Z"/>
  <path class="cls-2" d="M77,66.55c.33.19.33.49,0,.68a1.31,1.31,0,0,1-1.19,0c-.33-.19-.33-.49,0-.68A1.31,1.31,0,0,1,77,66.55Z"/>
  <ellipse class="cls-2" cx="79.56" cy="65.09" rx="0.84" ry="0.49"/>
  <path class="cls-2" d="M83.27,63a.36.36,0,0,1,0,.69,1.31,1.31,0,0,1-1.19,0,.36.36,0,0,1,0-.69A1.31,1.31,0,0,1,83.27,63Z"/>
  <ellipse class="cls-2" cx="85.79" cy="61.49" rx="0.84" ry="0.49"/>
  <path class="cls-2" d="M45.86,80.94a.36.36,0,0,1,0,.69,1.31,1.31,0,0,1-1.19,0,.36.36,0,0,1,0-.69A1.31,1.31,0,0,1,45.86,80.94Z"/>
  <path class="cls-2" d="M49,79.14a.36.36,0,0,1,0,.69,1.31,1.31,0,0,1-1.19,0,.36.36,0,0,1,0-.69A1.31,1.31,0,0,1,49,79.14Z"/>
  <path class="cls-2" d="M42.74,79.14a.36.36,0,0,1,0,.69,1.31,1.31,0,0,1-1.19,0,.36.36,0,0,1,0-.69A1.31,1.31,0,0,1,42.74,79.14Z"/>
  <path class="cls-2" d="M45.86,77.34a.36.36,0,0,1,0,.69,1.31,1.31,0,0,1-1.19,0,.36.36,0,0,1,0-.69A1.31,1.31,0,0,1,45.86,77.34Z"/>
  <ellipse class="cls-2" cx="39.03" cy="77.69" rx="0.84" ry="0.49"/>
  <path class="cls-2" d="M42.74,75.55c.33.19.33.49,0,.68a1.31,1.31,0,0,1-1.19,0c-.33-.19-.33-.49,0-.68A1.31,1.31,0,0,1,42.74,75.55Z"/>
  <ellipse class="cls-2" cx="35.89" cy="75.87" rx="0.84" ry="0.49"/>
  <path class="cls-2" d="M39.6,73.73c.33.19.33.49,0,.68a1.31,1.31,0,0,1-1.19,0c-.33-.19-.33-.49,0-.68A1.31,1.31,0,0,1,39.6,73.73Z"/>
  <ellipse class="cls-2" cx="32.77" cy="74.07" rx="0.84" ry="0.49"/>
  <path class="cls-2" d="M36.48,71.93a.36.36,0,0,1,0,.69,1.31,1.31,0,0,1-1.19,0,.36.36,0,0,1,0-.69A1.31,1.31,0,0,1,36.48,71.93Z"/>
  <path class="cls-2" d="M30.25,71.93a.36.36,0,0,1,0,.69,1.31,1.31,0,0,1-1.19,0,.36.36,0,0,1,0-.69A1.31,1.31,0,0,1,30.25,71.93Z"/>
  <path class="cls-2" d="M33.37,70.13a.37.37,0,0,1,0,.69,1.33,1.33,0,0,1-1.2,0,.36.36,0,0,1,0-.69A1.33,1.33,0,0,1,33.37,70.13Z"/>
  <path class="cls-2" d="M27.13,70.13a.36.36,0,0,1,0,.69,1.31,1.31,0,0,1-1.19,0,.36.36,0,0,1,0-.69A1.31,1.31,0,0,1,27.13,70.13Z"/>
  <ellipse class="cls-2" cx="29.65" cy="68.67" rx="0.84" ry="0.49"/>
  <path class="cls-2" d="M24,68.33A.36.36,0,0,1,24,69a1.31,1.31,0,0,1-1.19,0,.36.36,0,0,1,0-.69A1.31,1.31,0,0,1,24,68.33Z"/>
  <path class="cls-2" d="M27.13,66.53a.36.36,0,0,1,0,.69,1.31,1.31,0,0,1-1.19,0,.36.36,0,0,1,0-.69A1.31,1.31,0,0,1,27.13,66.53Z"/>
  <ellipse class="cls-2" cx="20.3" cy="66.87" rx="0.84" ry="0.49"/>
  <ellipse class="cls-2" cx="23.42" cy="65.07" rx="0.84" ry="0.49"/>
  <path class="cls-2" d="M20.9,62.93a.36.36,0,0,1,0,.69,1.33,1.33,0,0,1-1.2,0,.37.37,0,0,1,0-.69A1.33,1.33,0,0,1,20.9,62.93Z"/>
  <ellipse class="cls-2" cx="88.93" cy="59.71" rx="0.84" ry="0.49"/>
  <path class="cls-2" d="M92.64,61.14a.36.36,0,0,1,0,.69,1.31,1.31,0,0,1-1.19,0,.36.36,0,0,1,0-.69A1.31,1.31,0,0,1,92.64,61.14Z"/>
  <path class="cls-2" d="M91.47,57.56a1.31,1.31,0,0,1,1.19,0c.33.19.33.49,0,.68a1.33,1.33,0,0,1-1.2,0A.36.36,0,0,1,91.47,57.56Z"/>
</svg>
