<svg height='100px' width='100px'  fill="#000000" xmlns="http://www.w3.org/2000/svg" xmlns:xlink="http://www.w3.org/1999/xlink" version="1.1" x="0px" y="0px" viewBox="0 0 520 520" enable-background="new 0 0 520 520" xml:space="preserve"><g><g><path d="M260,75C157.991,75,75,157.991,75,260c0,102.01,82.991,185,185,185c102.01,0,185-82.99,185-185    C445,157.991,362.01,75,260,75z M117.447,216.283c-0.475,2.377-2.563,4.021-4.897,4.021c-0.325,0-0.655-0.032-0.986-0.098    c-2.708-0.542-4.464-3.175-3.922-5.883c6.536-32.688,27.547-59.708,57.644-74.134c2.488-1.194,5.476-0.143,6.67,2.348    c1.193,2.49,0.143,5.476-2.348,6.67C142.373,162.26,123.361,186.709,117.447,216.283z M364.501,285.825l-20.445,41.378    c-0.587,1.188-1.623,2.096-2.879,2.521c-1.256,0.424-2.629,0.334-3.817-0.254l-49.264-24.343V360c0,2.762-2.238,5-5,5h-46.154    c-2.761,0-5-2.238-5-5v-54.811l-49.138,24.281c-1.189,0.586-2.563,0.676-3.818,0.254c-1.256-0.427-2.292-1.332-2.879-2.521    l-20.446-41.378c-1.224-2.476-0.208-5.476,2.268-6.697l38.772-19.159l-38.647-19.096c-1.189-0.588-2.096-1.624-2.521-2.879    c-0.425-1.255-0.334-2.629,0.253-3.818l20.445-41.378c0.588-1.189,1.624-2.096,2.879-2.521c1.255-0.426,2.629-0.335,3.818,0.253    l49.014,24.218V160c0-2.761,2.239-5,5-5h46.154c2.762,0,5,2.239,5,5v54.809l49.139-24.28c2.475-1.224,5.475-0.208,6.696,2.268    l20.446,41.378c0.588,1.189,0.679,2.563,0.254,3.818c-0.426,1.256-1.333,2.292-2.521,2.879l-38.647,19.096l38.771,19.159    C364.709,280.352,365.725,283.35,364.501,285.825z"></path><path d="M307.175,259.969c0-1.902,1.08-3.64,2.785-4.482l43.237-21.364L337.18,201.71l-51.869,25.63    c-1.551,0.767-3.385,0.677-4.854-0.235s-2.36-2.519-2.36-4.247V165h-36.155v57.795c0,1.729-0.893,3.335-2.361,4.247    c-1.469,0.912-3.304,1.002-4.854,0.235l-51.746-25.568l-16.016,32.413l43.237,21.364c1.706,0.842,2.785,2.58,2.785,4.482    c0,1.902-1.08,3.64-2.785,4.482l-43.361,21.427l16.016,32.413l51.871-25.631c1.549-0.767,3.385-0.677,4.854,0.235    c1.468,0.912,2.361,2.519,2.361,4.246V355h36.154v-57.919c0-1.729,0.894-3.335,2.361-4.247s3.304-1,4.854-0.234l51.995,25.691    l16.017-32.413l-43.361-21.427C308.254,263.607,307.175,261.871,307.175,259.969z"></path><path d="M260,35C135.935,35,35,135.935,35,260c0,124.064,100.935,225,225,225c124.065,0,225-100.936,225-225    C485,135.935,384.065,35,260,35z M260,455c-107.523,0-195-87.477-195-195c0-107.523,87.477-195,195-195    c107.523,0,195,87.477,195,195C455,367.523,367.523,455,260,455z"></path></g></g></svg>