<svg height='100px' width='100px'  fill="#000000" xmlns="http://www.w3.org/2000/svg" xmlns:xlink="http://www.w3.org/1999/xlink" version="1.1" x="0px" y="0px" viewBox="0 0 33 33" enable-background="new 0 0 33 33" xml:space="preserve"><path d="M4.434,10.882h1.182h1.18l0.156-1.19h2.77l0.156,1.19h1.18h1.182l0.156-1.19h2.768l0.158,1.19h1.18h1.182l0.156-1.19h2.768  l0.156,1.19h1.182h1.182l0.156-1.19h2.768l0.156,1.19h1.182h1.182l0.156-1.19h1.729V5.994L16.5,0.5L2.549,5.994v3.697h1.729  L4.434,10.882z M16.5,3.024c1.391,0,2.516,1.127,2.516,2.517S17.891,8.058,16.5,8.058c-1.389,0-2.516-1.127-2.516-2.517  S15.111,3.024,16.5,3.024z"></path><polygon points="30.453,29.623 30.453,27.826 29.162,27.826 28.771,25.789 26.002,25.789 25.611,27.826 23.719,27.826 23.33,25.789   20.559,25.789 20.168,27.826 18.275,27.826 17.887,25.789 15.115,25.789 14.725,27.826 12.832,27.826 12.443,25.789 9.672,25.789   9.281,27.826 7.389,27.826 7,25.789 4.229,25.789 3.84,27.826 2.549,27.826 2.549,29.623 1.006,29.623 1.006,32.5 31.994,32.5   31.994,29.623 "></polygon><polygon points="5.615,12.063 4.664,12.063 4.314,24.42 6.914,24.42 6.564,12.063 "></polygon><polygon points="11.057,12.063 10.105,12.063 9.756,24.42 12.357,24.42 12.008,12.063 "></polygon><polygon points="16.5,12.063 15.549,12.063 15.199,24.42 17.801,24.42 17.451,12.063 "></polygon><polygon points="21.943,12.063 20.992,12.063 20.643,24.42 23.244,24.42 22.895,12.063 "></polygon><polygon points="27.387,12.063 26.436,12.063 26.086,24.42 28.688,24.42 28.338,12.063 "></polygon></svg>