<svg height='100px' width='100px'  fill="#000000" xmlns="http://www.w3.org/2000/svg" xmlns:xlink="http://www.w3.org/1999/xlink" xml:space="preserve" version="1.1" style="shape-rendering:geometricPrecision;text-rendering:geometricPrecision;image-rendering:optimizeQuality;" viewBox="0 0 333 333" x="0px" y="0px" fill-rule="evenodd" clip-rule="evenodd"><defs><style type="text/css">
   
    .fil0 {fill:#000000}
   
  </style></defs><g><g><polygon class="fil0" points="178,125 182,126 187,122 189,128 195,127 194,133 197,136 200,140 207,138 205,144 211,146 207,151 208,156 209,160 216,162 211,167 216,171 209,173 208,178 207,182 211,187 205,189 207,195 200,194 197,197 194,200 195,207 189,205 187,211 182,207 178,208 173,209 171,216 167,211 162,216 160,209 156,208 151,207 146,211 144,205 138,207 140,200 136,197 133,194 127,195 128,189 122,187 126,182 125,178 124,173 118,171 122,167 118,162 124,160 125,156 126,151 122,146 128,144 127,138 133,140 136,136 140,133 138,127 144,128 146,122 151,126 156,125 160,124 162,118 167,122 171,118 173,124 "></polygon><polygon class="fil0" points="167,74 174,65 167,65 160,65 "></polygon><polygon class="fil0" points="167,108 170,104 167,103 164,104 "></polygon><polygon class="fil0" points="144,100 150,108 151,108 151,108 153,97 153,97 147,93 144,99 "></polygon><polygon class="fil0" points="130,69 134,72 131,85 136,90 143,88 143,89 146,89 148,88 148,87 155,85 157,78 147,68 149,64 148,64 147,57 135,49 129,62 131,69 "></polygon><polygon class="fil0" points="120,86 122,75 116,79 110,82 "></polygon><polygon class="fil0" points="137,116 138,111 135,112 133,114 "></polygon><polygon class="fil0" points="113,120 123,124 124,124 124,123 120,113 120,113 113,113 113,120 "></polygon><polygon class="fil0" points="87,100 91,101 95,114 102,115 107,111 108,112 110,110 112,108 111,107 115,102 114,95 101,91 100,87 100,87 95,82 80,80 82,95 87,100 "></polygon><polygon class="fil0" points="86,120 82,110 79,116 75,122 "></polygon><polygon class="fil0" points="116,137 114,133 112,135 111,138 "></polygon><polygon class="fil0" points="97,153 108,151 108,151 108,150 100,144 99,144 93,147 97,153 "></polygon><polygon class="fil0" points="64,149 68,147 78,157 85,155 87,148 88,148 89,146 89,143 88,143 90,136 85,131 72,134 69,130 69,131 62,129 49,135 57,147 64,148 "></polygon><polygon class="fil0" points="74,167 65,160 65,167 65,174 "></polygon><polygon class="fil0" points="108,167 104,164 103,167 104,170 "></polygon><polygon class="fil0" points="100,190 108,183 108,182 108,182 97,180 97,180 93,186 99,190 "></polygon><polygon class="fil0" points="69,203 72,199 85,202 90,197 88,190 89,190 89,188 88,185 87,185 85,179 78,176 68,186 64,184 64,185 57,186 49,198 62,204 69,202 "></polygon><polygon class="fil0" points="86,213 75,211 79,218 82,223 "></polygon><polygon class="fil0" points="116,196 111,195 112,198 114,201 "></polygon><polygon class="fil0" points="120,220 124,210 124,210 123,209 113,213 113,213 113,221 120,220 "></polygon><polygon class="fil0" points="100,247 101,242 114,238 115,232 111,226 112,226 110,224 108,222 107,223 102,218 95,219 91,233 87,233 87,234 82,238 80,253 95,252 100,246 "></polygon><polygon class="fil0" points="120,247 110,251 116,255 122,258 "></polygon><polygon class="fil0" points="137,217 133,219 135,222 138,222 "></polygon><polygon class="fil0" points="153,236 151,226 151,225 150,225 144,234 144,234 147,241 153,236 "></polygon><polygon class="fil0" points="149,269 147,265 157,255 155,249 148,246 148,245 146,245 143,244 143,245 136,244 131,248 134,262 130,264 131,265 129,271 135,284 147,276 148,269 "></polygon><polygon class="fil0" points="167,260 160,268 167,268 174,268 "></polygon><polygon class="fil0" points="167,225 164,229 167,230 170,229 "></polygon><polygon class="fil0" points="190,234 183,225 182,225 182,226 180,236 180,236 186,241 190,234 "></polygon><polygon class="fil0" points="203,264 199,262 202,248 197,244 190,245 190,244 188,245 185,245 185,246 179,249 176,255 186,265 184,269 185,269 186,276 198,284 204,271 202,265 "></polygon><polygon class="fil0" points="213,247 211,258 218,255 223,251 "></polygon><polygon class="fil0" points="196,217 195,222 198,222 201,219 "></polygon><polygon class="fil0" points="220,213 210,209 210,210 209,210 213,220 213,220 221,221 220,213 "></polygon><polygon class="fil0" points="247,233 242,233 238,219 232,218 226,223 226,222 224,224 222,226 223,226 218,232 219,238 233,242 233,247 234,246 238,252 253,253 252,238 246,234 "></polygon><polygon class="fil0" points="247,213 251,223 255,218 258,211 "></polygon><polygon class="fil0" points="217,196 219,201 222,198 222,195 "></polygon><polygon class="fil0" points="236,180 226,182 225,182 225,183 234,190 234,190 241,186 236,180 "></polygon><polygon class="fil0" points="269,184 265,186 255,176 249,179 246,185 245,185 245,188 244,190 245,190 244,197 248,202 262,199 264,203 265,202 271,204 284,198 276,186 269,185 "></polygon><polygon class="fil0" points="260,167 268,174 268,167 268,160 "></polygon><polygon class="fil0" points="225,167 229,170 230,167 229,164 "></polygon><polygon class="fil0" points="234,144 225,150 225,151 226,151 236,153 236,153 241,147 234,144 "></polygon><polygon class="fil0" points="264,130 262,134 248,131 244,136 245,143 244,143 245,146 245,148 246,148 249,155 255,157 265,147 269,149 269,148 276,147 284,135 271,129 265,131 "></polygon><polygon class="fil0" points="247,120 258,122 255,116 251,110 "></polygon><polygon class="fil0" points="217,137 222,138 222,135 219,133 "></polygon><polygon class="fil0" points="213,113 209,123 210,124 210,124 220,120 220,120 221,113 213,113 "></polygon><polygon class="fil0" points="233,87 233,91 219,95 218,102 223,107 222,108 224,110 226,112 226,111 232,115 238,114 242,101 247,100 246,100 252,95 253,80 238,82 234,87 "></polygon><polygon class="fil0" points="213,86 223,82 218,79 211,75 "></polygon><polygon class="fil0" points="196,116 201,114 198,112 195,111 "></polygon><polygon class="fil0" points="180,97 182,108 182,108 183,108 190,100 190,99 186,93 180,97 "></polygon><polygon class="fil0" points="184,64 186,68 176,78 179,85 185,87 185,88 188,89 190,89 190,88 197,90 202,85 199,72 203,69 202,69 204,62 198,49 186,57 185,64 "></polygon></g></g></svg>