<svg height='100px' width='100px'  fill="#000000" xmlns="http://www.w3.org/2000/svg" xmlns:xlink="http://www.w3.org/1999/xlink" version="1.1" x="0px" y="0px" viewBox="0 0 512 512" enable-background="new 0 0 512 512" xml:space="preserve"><g><g><g><g><path d="M441.169,235.262H47.323c-3.84,0-6.893-3.053-6.893-6.893V149.6c0-3.84,3.052-6.893,6.893-6.893h393.846      c3.84,0,6.893,3.052,6.893,6.893v78.769C448.062,232.209,445.009,235.262,441.169,235.262z M54.215,221.477h380.062v-64.985      H54.215V221.477z"></path></g><g><path d="M441.169,126.954H47.323c-3.84,0-6.893-3.053-6.893-6.893V41.292c0-3.84,3.052-6.893,6.893-6.893h393.846      c3.84,0,6.893,3.052,6.893,6.893v78.769C448.062,123.901,445.009,126.954,441.169,126.954z M54.215,113.169h380.062V48.185      H54.215V113.169z"></path></g><rect x="76.861" y="70.831" width="19.692" height="19.692"></rect><rect x="106.4" y="70.831" width="19.692" height="19.692"></rect><rect x="135.938" y="70.831" width="19.692" height="19.692"></rect><rect x="214.708" y="70.831" width="196.923" height="19.692"></rect><rect x="76.861" y="179.139" width="19.692" height="19.692"></rect><rect x="106.4" y="179.139" width="19.692" height="19.692"></rect><rect x="135.938" y="179.139" width="19.692" height="19.692"></rect><rect x="214.708" y="179.139" width="196.923" height="19.692"></rect><g><path d="M96.554,156.492c-3.84,0-6.892-3.052-6.892-6.892v-29.539c0-3.84,3.052-6.892,6.892-6.892      c3.84,0,6.893,3.052,6.893,6.892V149.6C103.446,153.44,100.394,156.492,96.554,156.492z"></path></g><g><path d="M391.938,156.492c-3.84,0-6.893-3.052-6.893-6.892v-29.539c0-3.84,3.053-6.892,6.893-6.892s6.893,3.052,6.893,6.892      V149.6C398.831,153.44,395.778,156.492,391.938,156.492z"></path></g><g><path d="M96.554,264.8c-3.84,0-6.892-3.052-6.892-6.892v-29.539c0-3.84,3.052-6.892,6.892-6.892c3.84,0,6.893,3.052,6.893,6.892      v29.539C103.446,261.748,100.394,264.8,96.554,264.8z"></path></g><g><path d="M391.938,264.8c-3.84,0-6.893-3.052-6.893-6.892v-29.539c0-3.84,3.053-6.892,6.893-6.892s6.893,3.052,6.893,6.892      v29.539C398.831,261.748,395.778,264.8,391.938,264.8z"></path></g><rect x="76.861" y="287.446" width="19.692" height="19.692"></rect><rect x="106.4" y="287.446" width="19.692" height="19.692"></rect><rect x="135.938" y="287.446" width="19.692" height="19.692"></rect><rect x="214.708" y="287.446" width="196.923" height="19.692"></rect><rect x="76.861" y="395.754" width="19.692" height="19.692"></rect><rect x="106.4" y="395.754" width="19.692" height="19.692"></rect><rect x="135.938" y="395.754" width="19.692" height="19.692"></rect><rect x="214.708" y="395.754" width="88.616" height="19.692"></rect><g><path d="M96.554,373.107c-3.84,0-6.892-3.053-6.892-6.893v-29.538c0-3.84,3.052-6.892,6.892-6.892      c3.84,0,6.893,3.052,6.893,6.892v29.538C103.446,370.055,100.394,373.107,96.554,373.107z"></path></g><g><path d="M387.016,451.877H47.323c-3.84,0-6.893-3.053-6.893-6.893v-78.77c0-3.84,3.052-6.892,6.893-6.892H362.4      c3.84,0,6.892,3.052,6.892,6.892s-3.052,6.893-6.892,6.893H54.215v64.985h332.8c3.84,0,6.893,3.052,6.893,6.892      S390.855,451.877,387.016,451.877z"></path></g><g><path d="M369.391,343.569H47.323c-3.84,0-6.893-3.052-6.893-6.893v-78.769c0-3.84,3.052-6.893,6.893-6.893h393.846      c3.84,0,6.893,3.052,6.893,6.893v72.369c0,3.84-3.053,6.893-6.893,6.893s-6.892-3.053-6.892-6.893V264.8H54.215v64.985h315.175      c3.84,0,6.893,3.052,6.893,6.892C376.283,340.518,373.23,343.569,369.391,343.569z"></path></g><g><g><path d="M436.738,471.569h-30.228c-1.871,0-3.644-0.788-4.923-2.067c-3.644-3.742-6.991-7.09-10.142-10.24       c-35.348-35.644-36.037-37.612-35.938-108.308c0-4.037,0-8.37,0-12.899c0-3.248,2.363-6.104,5.514-6.793l59.176-11.717       c0.886-0.197,1.771-0.197,2.658,0l58.979,11.717c3.249,0.591,5.514,3.445,5.514,6.793c0,6.203,0,11.914,0,17.231       c0.197,65.871-0.394,67.741-33.182,101.12c-3.741,3.84-7.976,8.172-12.701,12.997       C440.382,470.781,438.609,471.569,436.738,471.569z M409.366,457.784h24.418c3.938-4.135,7.483-7.778,10.732-11.027       c15.36-15.655,22.351-22.843,25.797-33.378c3.545-11.028,3.545-26.782,3.446-58.093c0-3.644,0-7.483,0-11.618l-52.086-10.339       l-52.382,10.437c0,2.462,0,4.924,0,7.287c-0.099,33.771-0.099,50.806,3.841,62.72c3.741,11.422,11.421,19.102,28.159,35.938       C403.754,452.074,406.511,454.831,409.366,457.784z"></path></g></g><g><path d="M414.486,413.674c-1.772,0-3.545-0.689-4.923-1.969l-13.884-13.982c-2.658-2.658-2.658-7.089,0-9.747      c2.659-2.659,7.09-2.659,9.748,0l9.059,9.058l22.941-22.941c2.658-2.658,7.089-2.658,9.748,0c2.658,2.659,2.658,7.09,0,9.748      l-27.865,27.865C418.031,412.984,416.259,413.674,414.486,413.674z"></path></g></g></g></g></svg>