<svg width="74" height="119" viewBox="0 0 74 119" fill="none" xmlns="http://www.w3.org/2000/svg">
<path d="M73.7534 118.247H44.739V62.2308C44.739 55.4384 44.739 49.1911 45.1582 43.5727C43.1271 46.003 40.9123 48.2738 38.5336 50.3651L26.5001 60.1763L11.6575 41.9375L48.0094 12.3361H73.7534V118.247Z" fill="#9ABEBF"/>
<path d="M67.2962 110.197H34.047V52.0845C34.047 47.5562 34.047 43.1957 34.047 39.0448C33.1246 39.9253 32.1602 40.8477 31.112 41.7701L17.4014 53.0908L0.126953 31.5815L38.6591 0.219116H67.2962V110.197ZM38.2398 106.004H63.1034V4.41195H40.1685L6.03885 32.2105L18.1981 47.1789L28.5963 38.7932C30.8895 36.7992 33.0206 34.626 34.9694 32.2943L39.1623 27.3887L38.8688 33.7199C38.5753 39.4641 38.4076 45.7114 38.4076 52.2941L38.2398 106.004Z" fill="#16110D"/>
</svg>
