<svg width="90" height="119" viewBox="0 0 90 119" fill="none" xmlns="http://www.w3.org/2000/svg">
<path d="M89.1091 118.247H13.2646V99.6483L38.7808 73.8422C46.0711 66.1928 50.8347 60.9874 53.0715 58.2259C54.9398 56.0446 56.5263 53.637 57.7937 51.0598C58.6513 49.0721 59.0885 46.9284 59.0778 44.7636C59.1383 43.5616 58.9362 42.3608 58.4855 41.2449C58.0348 40.1289 57.3464 39.1246 56.4682 38.3017C54.3608 36.6189 51.7041 35.7776 49.0121 35.9406C45.4921 36.0059 42.0505 36.9913 39.0293 38.7988C34.959 41.1635 31.142 43.9396 27.6382 47.0833L12.1047 28.8988C16.2756 25.013 20.8274 21.5574 25.6913 18.5846C29.4504 16.4679 33.4767 14.8657 37.6624 13.821C42.4375 12.6797 47.3337 12.1233 52.2431 12.1641C58.4654 12.0552 64.6385 13.2842 70.3447 15.7679C75.3936 17.8774 79.7138 21.4199 82.7715 25.9578C85.7046 30.3414 87.2359 35.5131 87.1622 40.787C87.204 44.6246 86.6877 48.4478 85.6296 52.1368C84.5175 55.7564 82.8999 59.2009 80.8246 62.3681C78.3246 66.1666 75.4672 69.7175 72.2916 72.9723C68.7292 76.7003 61.1903 83.7421 49.5921 94.1392V94.8433H89.1091V118.247Z" fill="#9ABEBF"/>
<path d="M82.7299 110.294H2.70174V88.7957L28.8393 62.3682C36.0054 54.8707 40.769 49.6515 43.0058 46.9176C44.7427 44.8721 46.2177 42.6178 47.3966 40.2072C48.1674 38.4877 48.5628 36.6237 48.5564 34.7394C48.6064 33.8322 48.4581 32.9249 48.1219 32.0808C47.7857 31.2367 47.2696 30.476 46.6095 29.8516C43.71 27.2834 37.3723 27.3248 31.5732 30.5557C27.6275 32.9532 23.9235 35.7277 20.5134 38.8402L18.9393 40.1657L0.630615 18.7503L2.12183 17.3834C6.41506 13.3984 11.0908 9.8465 16.0812 6.77924C19.9826 4.58408 24.1626 2.92599 28.5079 1.84996C33.4991 0.661725 38.6221 0.118803 43.7514 0.234487C50.2705 0.136603 56.7364 1.4213 62.7229 4.00393C68.1009 6.2987 72.7031 10.0955 75.9781 14.9395C79.1347 19.6703 80.7945 25.2415 80.7416 30.9285C80.8175 38.9957 78.5121 46.9061 74.1141 53.6695C71.5293 57.5882 68.5748 61.2502 65.2911 64.605C62.0601 68.0016 55.474 74.1736 45.6983 82.9551H82.7299V110.294ZM6.84398 106.152H78.5877V86.9731H39.0292V83.2865L39.7334 82.6652C51.2074 72.351 58.7877 65.3092 62.3087 61.6226C65.4019 58.4647 68.1768 55.01 70.5931 51.3084C72.5537 48.3131 74.1003 45.0666 75.191 41.6569C76.1786 38.1531 76.6667 34.5274 76.6408 30.8871C76.668 26.0046 75.2246 21.227 72.4986 17.1763C69.6261 13.0065 65.6344 9.73279 60.9831 7.73196C55.5386 5.41586 49.6672 4.27262 43.7514 4.37673C39.0213 4.32133 34.3031 4.86412 29.7092 5.99221C25.7062 6.99732 21.8497 8.51488 18.2352 10.5073C14.0792 13.0527 10.1687 15.9786 6.55403 19.2474L19.395 34.2838C22.5762 31.5349 26.0008 29.0809 29.6263 26.952C36.9995 22.8097 45.1598 22.8097 49.4263 26.7449C50.539 27.7487 51.4166 28.9856 51.9966 30.3675C52.5765 31.7493 52.8445 33.2421 52.7815 34.7394C52.7826 37.1919 52.2748 39.6179 51.2903 41.8641C49.912 44.6046 48.2007 47.1645 46.1953 49.4858C43.9171 52.3439 39.0707 57.7703 31.7803 65.2677L6.92683 90.494L6.84398 106.152Z" fill="#16110D"/>
</svg>
