<svg width="86" height="119" viewBox="0 0 86 119" fill="none" xmlns="http://www.w3.org/2000/svg">
<path d="M82.7378 35.845C82.8486 41.831 80.7679 47.6511 76.8873 52.2102C72.4029 57.2509 66.4982 60.8166 59.9493 62.4385V62.8476C77.16 65.0296 85.7654 73.2122 85.7654 87.3954C85.9255 91.8246 84.9674 96.2228 82.9796 100.184C80.9918 104.145 78.0383 107.542 74.3916 110.061C66.7818 115.516 56.2262 118.244 42.725 118.244C37.5456 118.288 32.3719 117.891 27.2598 117.057C22.0153 116.101 16.8768 114.635 11.9175 112.68V89.4001C16.3066 91.65 20.9491 93.3669 25.7461 94.5142C29.9918 95.5572 34.3438 96.1063 38.7155 96.1508C43.3237 96.4775 47.937 95.5887 52.094 93.5733C53.4674 92.7226 54.5773 91.5069 55.2998 90.062C56.0222 88.6171 56.3288 86.9998 56.1853 85.3907C56.3355 83.0034 55.5421 80.6526 53.976 78.8446C52.0002 77.06 49.5612 75.8689 46.939 75.4079C42.7563 74.5318 38.4876 74.1337 34.2151 74.2214H27.9554V53.3558H34.4605C48.6164 53.3558 55.6944 49.7418 55.6944 42.5139C55.7665 41.3083 55.5119 40.1056 54.9574 39.0327C54.403 37.9597 53.5692 37.0563 52.5441 36.4178C49.9731 34.9892 47.0536 34.3089 44.116 34.454C36.8088 34.6911 29.7174 36.9887 23.6595 41.0819L12.0811 22.4256C17.1823 18.7903 22.8504 16.0253 28.8554 14.243C35.2758 12.552 41.8959 11.74 48.5346 11.8291C57.3704 11.3464 66.1445 13.5578 73.6961 18.1706C76.5797 20.1068 78.9229 22.7453 80.5048 25.8374C82.0867 28.9296 82.8552 32.3737 82.7378 35.845V35.845Z" fill="#9ABEBF"/>
<path d="M34.3708 110.266C29.0817 110.296 23.7993 109.886 18.5784 109.039C13.198 108.057 7.92352 106.564 2.82693 104.579L1.51771 104.047V76.1445L4.50436 77.6583C8.7328 79.8438 13.2116 81.5061 17.842 82.6088C21.8588 83.6136 25.9761 84.1626 30.1159 84.2453C34.3351 84.5321 38.5581 83.7438 42.3898 81.9542C43.4549 81.2944 44.3167 80.3528 44.8799 79.2336C45.4431 78.1144 45.6858 76.8612 45.581 75.6127C45.7723 73.8445 45.3063 72.0679 44.2718 70.6213C42.5206 69.0536 40.3671 68.0052 38.053 67.5937C34.0143 66.7815 29.8973 66.4247 25.7791 66.53H17.5965V41.4503H26.1473C38.9122 41.4503 45.3764 38.4637 45.3764 32.6131C45.4479 31.7563 45.2789 30.8966 44.8887 30.1305C44.4984 29.3644 43.9022 28.7223 43.1671 28.2763C40.9156 27.0447 38.3657 26.4639 35.8028 26.5989C28.8702 26.8438 22.1479 29.0421 16.41 32.9404L14.6917 34.0042L0.98584 11.9521L2.58146 10.8474C7.89423 7.193 13.7673 4.42921 19.9695 2.66482C26.5599 0.908692 33.3608 0.0688975 40.1805 0.169121C49.4828 -0.39226 58.7342 1.90631 66.6921 6.75611C69.8562 8.84551 72.4341 11.7087 74.1812 15.074C75.9283 18.4393 76.7867 22.1951 76.6748 25.9852C76.7916 32.4979 74.5214 38.8282 70.2924 43.7824C67.1419 47.3412 63.2251 50.139 58.8368 51.9649C72.6654 55.4835 79.7024 63.9524 79.7024 77.1673C79.8407 81.9253 78.7909 86.6428 76.6479 90.8931C74.5049 95.1434 71.3362 98.7926 67.4285 101.511C59.3277 107.443 48.2403 110.266 34.3708 110.266ZM5.73174 101.224C10.1633 102.9 14.7368 104.173 19.3967 105.029C24.3886 105.828 29.4382 106.211 34.4936 106.175C47.5039 106.175 57.7321 103.556 64.9737 98.3194C68.3534 95.9784 71.091 92.8262 72.9353 89.1518C74.7796 85.4775 75.6716 81.3988 75.5293 77.2901C75.5293 64.2798 67.6331 56.8336 51.4724 54.9107L49.6723 54.6652V50.9012L51.1861 50.4921C57.3089 49.0315 62.8528 45.7678 67.1012 41.123C70.7206 36.9239 72.6459 31.527 72.5017 25.9852C72.6164 22.8592 71.9238 19.7563 70.4906 16.9759C69.0573 14.1954 66.9318 11.8311 64.3191 10.111C57.1166 5.73827 48.7563 3.65532 40.3441 4.13768C33.899 4.04444 27.4712 4.82899 21.2378 6.46972C16.008 8.00055 11.0416 10.3182 6.5091 13.3431L15.96 28.6036C21.9199 24.9152 28.755 22.8816 35.7619 22.7122C39.0915 22.5661 42.395 23.3601 45.2946 25.0033C46.6101 25.8241 47.6828 26.981 48.4019 28.3546C49.1211 29.7283 49.4608 31.2689 49.3859 32.8177C49.3859 41.3685 41.5306 45.7462 26.0655 45.7462H21.6878V62.4387H25.7791C30.2165 62.3427 34.6502 62.7545 38.994 63.6661C42.0609 64.2065 44.9041 65.6281 47.1766 67.7574C49.1034 69.9368 50.0889 72.7905 49.9178 75.6945C50.0176 77.643 49.5917 79.5825 48.6848 81.3099C47.7779 83.0374 46.4233 84.4893 44.7627 85.5136C40.2829 87.7635 35.2804 88.7668 30.2795 88.4184C25.7565 88.3456 21.2556 87.7693 16.8601 86.7001C12.9993 85.7852 9.2326 84.5113 5.60901 82.8952L5.73174 101.224Z" fill="#16110D"/>
</svg>
