<svg width="94" height="119" viewBox="0 0 94 119" fill="none" xmlns="http://www.w3.org/2000/svg">
<path d="M93.4049 97.8329H81.7488V118.294H53.531V97.8329H11.3511V76.8687L55.3339 12.5087H81.7488V76.4914H93.4049V97.8329ZM53.531 76.4914V64.1644C53.531 61.8583 53.531 58.7557 53.7826 54.8144C54.0342 50.8731 54.0761 48.8186 54.1599 48.609H53.4052C51.8003 52.2188 49.9366 55.708 47.8288 59.0492L36.0888 76.4914H53.531Z" fill="#9ABEBF"/>
<path d="M75.2917 110.244H42.8391V89.7828H0.65918V66.0513L45.6483 0.265747H75.2917V64.2484H86.9058V89.7828H75.2917V110.244ZM47.032 106.051H71.0988V85.59H82.713V68.4413H71.0988V4.45858H47.8705L4.85202 67.3511V85.59H47.032V106.051ZM47.032 68.3155H23.594L37.5142 47.6029C39.5511 44.3722 41.345 40.9947 42.881 37.4981L43.4261 36.2403H48.8768L47.6189 39.0075C47.6189 39.3849 47.6189 40.6847 47.2835 44.6259C46.9481 48.5672 47.032 51.628 47.032 53.8921V68.3155ZM31.4346 64.1226H42.8391V54.0179C42.8391 52.1311 42.8391 49.8251 42.8391 46.6804C42.2102 47.8125 41.5393 48.9446 40.8266 50.0347L31.4346 64.1226Z" fill="#16110D"/>
</svg>
