<svg id="content" xmlns="http://www.w3.org/2000/svg" viewBox="0 0 114.46 101.73">
  <defs>
    <style>
      .cls-1 {
        fill: #eb9884;
      }

      .cls-2 {
        fill: #16110d;
      }

      .cls-3 {
        fill: #fec;
      }
    </style>
  </defs>
  <title>Artboard 27</title>
  <path class="cls-1" d="M43.82,48.86s1.82-23,5.66-25.22,6.05,22.78,6.05,22.78L51.6,60.22l-5.76,3Z"/>
  <path class="cls-2" d="M45.48,63.9l-2.11-15v0c.19-2.38,2-23.3,5.89-25.57a1.32,1.32,0,0,1,1.33,0C54,25,55.79,44.19,56,46.38v.08L52,60.53ZM44.27,48.84l1.92,13.68,5-2.61,3.86-13.53C54.33,38,52.42,25.17,50.18,24a.47.47,0,0,0-.47,0C46.73,25.74,44.78,42.47,44.27,48.84Z"/>
  <rect class="cls-2" x="42.95" y="28.42" width="10.69" height="0.67" transform="translate(0.25 57.92) rotate(-62.03)"/>
  <rect class="cls-2" x="40.72" y="32.72" width="15.26" height="0.67" transform="translate(-3.5 60.29) rotate(-62.07)"/>
  <rect class="cls-2" x="42.21" y="35.11" width="14.43" height="0.67" transform="translate(-5.01 62.56) rotate(-62.13)"/>
  <rect class="cls-2" x="44.44" y="37.03" width="12.58" height="0.67" transform="translate(-6.09 64.58) rotate(-61.97)"/>
  <rect class="cls-2" x="47.2" y="39.58" width="9.02" height="0.67" transform="translate(-7.82 66.8) rotate(-61.96)"/>
  <rect class="cls-2" x="50.28" y="43.24" width="3.93" height="0.67" transform="translate(-11.01 68.62) rotate(-61.43)"/>
  <path class="cls-1" d="M66.77,20.59c.3-1.73.59-3.52.59-3.52l-4.08-2.6a1.84,1.84,0,0,1-.27-.13,2.14,2.14,0,0,0-2,.19c-8.26,4.76-9.12,46.83-9.12,46.83s-.21-2.45-.69-5.64l.3-.54-1.3-10.89L48.11,43c-.6-.37-1.16-.8-1.74-1.2a2.08,2.08,0,0,0-2.47,0c-6,3.71-8.45,32.48-8.45,32.48L39.79,77l4-7.45L71.36,53.77S70.3,31.81,66.77,20.59Z"/>
  <path class="cls-3" d="M60,52l11.37-6.84c-.68-7.23-1.87-16.67-3.82-22.85.29-1.73.58-3.52.58-3.52L64,16.19a1.39,1.39,0,0,1-.27-.13,2.14,2.14,0,0,0-2,.19c-4.92,2.83-7.21,18.87-8.26,31.4Z"/>
  <path class="cls-3" d="M41.56,73.85l9.13-21.33.77-2.06L50.93,46l-2.07-1.29c-.6-.37-1.16-.8-1.74-1.2a2.1,2.1,0,0,0-2.47,0c-4.45,2.73-6.92,19-7.92,27.4Z"/>
  <path class="cls-2" d="M39.78,77.5l-4.8-3,0-.28c.1-1.18,2.49-29,8.66-32.83a2.58,2.58,0,0,1,3,0l.63.45c.36.25.71.51,1.08.74L50.61,44l1.13,9.54c.69-12.49,2.8-35.83,9-39.42a2.6,2.6,0,0,1,2.42-.22l.27.14,4.4,2.79,0,.3s-.28,1.71-.57,3.41c3.48,11.18,4.57,33,4.58,33.19V54L44.12,69.84l-4,7.44ZM35.92,74l3.7,2.3,3.83-7.15L70.89,53.52C70.76,51,69.6,31.09,66.34,20.73l0-.11,0-.1c.22-1.31.44-2.65.54-3.23l-3.81-2.42-.27-.14a1.72,1.72,0,0,0-1.58.18C53.27,19.5,52.32,61,52.32,61.37l-.9,0s-.21-2.48-.68-5.61l0-.15.29-.55L49.76,44.56l-1.89-1.18c-.39-.24-.76-.51-1.14-.78l-.61-.43a1.66,1.66,0,0,0-2,0C38.65,45.55,36.19,71.11,35.92,74Z"/>
  <path class="cls-1" d="M39.79,77s2.4-28.76,8.45-32.48,8,19.57,8,19.57S57.07,22,65.33,17.22,75.7,56.46,75.7,56.46Z"/>
  <path class="cls-2" d="M39.81,77.48l-.5-.29C39.41,76,41.83,47.9,48,44.11a2.57,2.57,0,0,1,2.62-.2c2.89,1.47,4.53,9,5.35,14.42.56-11.77,2.55-37.7,9.13-41.5a2.61,2.61,0,0,1,2.69-.09c6.55,3.57,8.29,38.23,8.36,39.7v.28Zm9.7-32.94a2,2,0,0,0-1,.33c-5.21,3.21-7.7,26.5-8.16,31.29L75.24,56.21c-.62-12.39-3-36-7.88-38.68a1.72,1.72,0,0,0-1.81.08c-7.94,4.59-8.86,45.54-8.87,46l-.92.53c-.4-4.82-2.17-17.67-5.54-19.38A1.53,1.53,0,0,0,49.51,44.54Z"/>
  <path class="cls-1" d="M75.08,49.28l.75-1.15L72.46,46.4a3.3,3.3,0,0,0-.32-.18,4.42,4.42,0,0,0-4.32.39C60.43,50.88,60.71,61.13,53,67.26s-10.9,4-10.9,4l-.87,6.24L45,79.49l11-7.78,21.64-15A26.33,26.33,0,0,0,75.08,49.28Z"/>
  <path class="cls-3" d="M76,50.71l.75-1.15-3.36-1.73a3.47,3.47,0,0,0-.33-.18,4.4,4.4,0,0,0-4.31.39c-7.4,4.27-7.12,14.52-14.8,20.65s-10.9,4-10.9,4l-.56,4.17L47.7,76l8.71-5.13,22.13-12.7A26.15,26.15,0,0,0,76,50.71Z"/>
  <path class="cls-2" d="M44.92,80l-4.16-2.17,1-7.25.59.39s3.11,1.76,10.37-4C56.4,64,58.21,60.12,60,56.38c1.91-4.06,3.7-7.89,7.63-10.16a4.86,4.86,0,0,1,4.73-.41h0a2.34,2.34,0,0,1,.37.2L76.48,48,75.6,49.3a26.55,26.55,0,0,1,2.49,7.38l0,.28L56.26,72.08Zm-3.18-2.67L45,79l10.74-7.62,21.41-14.8a25.73,25.73,0,0,0-2.46-7l-.14-.24.63-1-2.92-1.5L72,46.65l0,0a4,4,0,0,0-3.89.38c-3.68,2.12-5.42,5.83-7.26,9.76s-3.67,7.81-7.49,10.85c-6.08,4.84-9.51,4.68-10.81,4.32Z"/>
  <path class="cls-1" d="M81.46,58.62S79,44.21,71.64,48.48,64.53,63,56.84,69.13s-10.9,4-10.9,4l-.88,6.24Z"/>
  <polygon class="cls-1" points="42.12 71.3 45.94 73.17 45.04 79.49 41.25 77.54 42.12 71.3"/>
  <path class="cls-2" d="M45.46,79.7,82,58.86l0-.31c-.06-.36-1.54-8.89-5.79-10.89a4.85,4.85,0,0,0-4.69.43c-3.93,2.27-5.73,6.1-7.63,10.16C62,62,60.21,65.87,56.56,68.78,50,74,46.85,73.08,46.29,72.84l-.13-.06-.57-.37-3.82-1.78-1,7.16,3.8,2L45,80Zm-3-7.72,3,1.45-.77,5.38-2.94-1.52Zm14.64-2.5c3.82-3,5.68-7,7.48-10.85s3.58-7.64,7.26-9.76a4,4,0,0,1,3.87-.4c3.41,1.61,4.93,8.39,5.23,9.92L45.64,78.57l.67-4.77C47.61,74.16,51,74.32,57.12,69.48Z"/>
  <path class="cls-2" d="M83,60.29s-2.42-14.41-9.82-10.14S66,64.67,58.35,70.8s-10.9,4-10.9,4l-.88,6.24Z"/>
  <path class="cls-2" d="M36.77,80.86c.27.15.27.4,0,.56a1.1,1.1,0,0,1-1,0,.3.3,0,0,1,0-.56A1,1,0,0,1,36.77,80.86Z"/>
  <ellipse class="cls-2" cx="38.82" cy="79.68" rx="0.68" ry="0.4"/>
  <path class="cls-2" d="M34.24,79.4c.27.15.27.4,0,.56a1.1,1.1,0,0,1-1,0c-.27-.16-.27-.41,0-.56A1,1,0,0,1,34.24,79.4Z"/>
  <path class="cls-2" d="M36.77,77.94c.27.15.27.4,0,.56a1.1,1.1,0,0,1-1,0,.3.3,0,0,1,0-.56A1,1,0,0,1,36.77,77.94Z"/>
  <path class="cls-2" d="M34.24,76.48c.27.15.27.4,0,.55a1,1,0,0,1-1,0c-.27-.15-.27-.4,0-.55A1,1,0,0,1,34.24,76.48Z"/>
  <ellipse class="cls-2" cx="49.04" cy="85.29" rx="0.68" ry="0.4"/>
  <ellipse class="cls-2" cx="51.57" cy="83.83" rx="0.68" ry="0.4"/>
  <ellipse class="cls-2" cx="54.1" cy="82.37" rx="0.68" ry="0.4"/>
  <path class="cls-2" d="M57.12,80.63c.27.15.27.4,0,.55a1,1,0,0,1-1,0c-.27-.15-.27-.4,0-.55A1,1,0,0,1,57.12,80.63Z"/>
  <path class="cls-2" d="M59.65,79.16c.27.16.27.41,0,.56a1,1,0,0,1-1,0c-.27-.15-.27-.4,0-.56A1.1,1.1,0,0,1,59.65,79.16Z"/>
  <path class="cls-2" d="M62.18,77.7c.27.16.27.41,0,.56a1,1,0,0,1-1,0,.3.3,0,0,1,0-.56A1.1,1.1,0,0,1,62.18,77.7Z"/>
  <path class="cls-2" d="M64.71,76.24c.27.16.27.41,0,.56a1.1,1.1,0,0,1-1,0,.3.3,0,0,1,0-.56A1.1,1.1,0,0,1,64.71,76.24Z"/>
  <ellipse class="cls-2" cx="66.76" cy="75.06" rx="0.68" ry="0.4"/>
  <ellipse class="cls-2" cx="69.29" cy="73.6" rx="0.68" ry="0.4"/>
  <ellipse class="cls-2" cx="71.82" cy="72.14" rx="0.68" ry="0.4"/>
  <ellipse class="cls-2" cx="74.35" cy="70.68" rx="0.68" ry="0.4"/>
  <ellipse class="cls-2" cx="76.88" cy="69.21" rx="0.68" ry="0.4"/>
  <path class="cls-2" d="M79.9,67.47c.27.16.27.41,0,.56a1,1,0,0,1-1,0c-.27-.15-.27-.4,0-.56A1.1,1.1,0,0,1,79.9,67.47Z"/>
  <path class="cls-2" d="M82.43,66c.27.16.27.41,0,.56a1.1,1.1,0,0,1-1,0,.3.3,0,0,1,0-.56A1.1,1.1,0,0,1,82.43,66Z"/>
  <path class="cls-2" d="M44.46,85c.27.15.27.4,0,.56a1.1,1.1,0,0,1-1,0,.3.3,0,0,1,0-.56A1.1,1.1,0,0,1,44.46,85Z"/>
  <path class="cls-2" d="M47,83.55c.27.15.27.4,0,.56a1.08,1.08,0,0,1-1,0c-.27-.16-.27-.41,0-.56A1,1,0,0,1,47,83.55Z"/>
  <path class="cls-2" d="M49.53,82.09a.3.3,0,0,1,0,.56,1.1,1.1,0,0,1-1,0c-.27-.16-.27-.41,0-.56A1,1,0,0,1,49.53,82.09Z"/>
  <ellipse class="cls-2" cx="51.57" cy="80.9" rx="0.68" ry="0.4"/>
  <ellipse class="cls-2" cx="54.1" cy="79.44" rx="0.68" ry="0.4"/>
  <ellipse class="cls-2" cx="56.63" cy="77.98" rx="0.68" ry="0.4"/>
  <ellipse class="cls-2" cx="59.17" cy="76.52" rx="0.68" ry="0.4"/>
  <ellipse class="cls-2" cx="61.7" cy="75.06" rx="0.68" ry="0.4"/>
  <path class="cls-2" d="M64.71,73.32c.27.15.27.4,0,.56a1.1,1.1,0,0,1-1,0,.3.3,0,0,1,0-.56A1,1,0,0,1,64.71,73.32Z"/>
  <path class="cls-2" d="M67.24,71.86c.27.15.27.4,0,.56a1.08,1.08,0,0,1-1,0c-.27-.16-.27-.41,0-.56A1,1,0,0,1,67.24,71.86Z"/>
  <path class="cls-2" d="M69.77,70.4c.27.15.27.4,0,.55a1,1,0,0,1-1,0c-.27-.15-.27-.4,0-.55A1,1,0,0,1,69.77,70.4Z"/>
  <path class="cls-2" d="M72.31,68.93a.3.3,0,0,1,0,.56,1,1,0,0,1-1,0c-.27-.15-.27-.4,0-.56A1.1,1.1,0,0,1,72.31,68.93Z"/>
  <ellipse class="cls-2" cx="74.35" cy="67.75" rx="0.68" ry="0.4"/>
  <path class="cls-2" d="M77.37,66c.27.16.27.41,0,.56a1.1,1.1,0,0,1-1,0c-.27-.15-.27-.4,0-.56A1.1,1.1,0,0,1,77.37,66Z"/>
  <ellipse class="cls-2" cx="79.42" cy="64.83" rx="0.68" ry="0.4"/>
  <ellipse class="cls-2" cx="41.45" cy="83.83" rx="0.68" ry="0.4"/>
  <path class="cls-2" d="M44.46,82.09c.27.15.27.4,0,.56a1.1,1.1,0,0,1-1,0,.3.3,0,0,1,0-.56A1,1,0,0,1,44.46,82.09Z"/>
  <path class="cls-2" d="M39.4,82.09c.27.15.27.4,0,.56a1.1,1.1,0,0,1-1,0,.3.3,0,0,1,0-.56A1,1,0,0,1,39.4,82.09Z"/>
  <ellipse class="cls-2" cx="41.45" cy="80.9" rx="0.68" ry="0.4"/>
  <path class="cls-2" d="M84,64.56a1.1,1.1,0,0,1,1,0c.27.16.27.41,0,.56a1,1,0,0,1-1,0C83.74,65,83.74,64.72,84,64.56Z"/>
  <path class="cls-2" d="M81.48,63.1a1.1,1.1,0,0,1,1,0c.27.16.27.41,0,.56a1,1,0,0,1-1,0C81.21,63.51,81.21,63.26,81.48,63.1Z"/>
  <path class="cls-2" d="M85,61.64c.27.15.27.4,0,.56a1.1,1.1,0,0,1-1,0,.3.3,0,0,1,0-.56A1.1,1.1,0,0,1,85,61.64Z"/>
</svg>
