<svg height='100px' width='100px'  fill="#000000" xmlns:x="http://ns.adobe.com/Extensibility/1.0/" xmlns:i="http://ns.adobe.com/AdobeIllustrator/10.0/" xmlns:graph="http://ns.adobe.com/Graphs/1.0/" xmlns="http://www.w3.org/2000/svg" xmlns:xlink="http://www.w3.org/1999/xlink" version="1.1" x="0px" y="0px" viewBox="0 0 100 100" style="enable-background:new 0 0 100 100;" xml:space="preserve"><g><g i:extraneous="self"><g><path d="M5273.1,2400.1v-2c0-2.8-5-4-9.7-4s-9.7,1.3-9.7,4v2c0,1.8,0.7,3.6,2,4.9l5,4.9c0.3,0.3,0.4,0.6,0.4,1v6.4     c0,0.4,0.2,0.7,0.6,0.8l2.9,0.9c0.5,0.1,1-0.2,1-0.8v-7.2c0-0.4,0.2-0.7,0.4-1l5.1-5C5272.4,2403.7,5273.1,2401.9,5273.1,2400.1z      M5263.4,2400c-4.8,0-7.4-1.3-7.5-1.8v0c0.1-0.5,2.7-1.8,7.5-1.8c4.8,0,7.3,1.3,7.5,1.8C5270.7,2398.7,5268.2,2400,5263.4,2400z"></path><path d="M5268.4,2410.3c-0.6,0-1,0.4-1,1c0,0.6,0.4,1,1,1h4.3c0.6,0,1-0.4,1-1c0-0.6-0.4-1-1-1H5268.4z"></path><path d="M5272.7,2413.7h-4.3c-0.6,0-1,0.4-1,1c0,0.6,0.4,1,1,1h4.3c0.6,0,1-0.4,1-1C5273.7,2414.1,5273.3,2413.7,5272.7,2413.7z"></path><path d="M5272.7,2417h-4.3c-0.6,0-1,0.4-1,1c0,0.6,0.4,1,1,1h4.3c0.6,0,1-0.4,1-1C5273.7,2417.5,5273.3,2417,5272.7,2417z"></path></g><g><path d="M80.3,62.1H59.4c-1.4,0-2.5,1.1-2.5,2.5c0,1.4,1.1,2.5,2.5,2.5h18.3V90c0,1.4,1.1,2.5,2.5,2.5c1.4,0,2.5-1.1,2.5-2.5     V64.7C82.8,63.3,81.7,62.1,80.3,62.1z"></path><ellipse transform="matrix(0.1082 -0.9941 0.9941 0.1082 -1.8857 75.8425)" cx="41.3" cy="39" rx="7.3" ry="7.3"></ellipse><path d="M40.9,75.6H30.3c-2.5,0-4.6-1.8-5-4.2L21.6,51c-0.2-1.4-1.6-2.3-3-2.1c-1.4,0.2-2.3,1.6-2.1,3l3.6,20.5     c0.9,4.9,5.1,8.4,10.1,8.4h8.8V90c0,1.4,1.1,2.5,2.5,2.5c1.4,0,2.5-1.1,2.5-2.5V78.9C44.2,77.1,42.7,75.6,40.9,75.6z"></path><path d="M49.2,64.9h-6.7l1.7-7.9l4.7,2.3c0.5,0.2,1,0.3,1.5,0.3c0.1,0,0.1,0,0.2,0l7.1-0.3c1.9-0.1,3.3-1.7,3.2-3.5     c-0.1-1.9-1.7-3.3-3.5-3.2l-6.3,0.3c0,0-7.1-3.7-8-3.9c-1-0.2-5-1.1-5-1.1c-1.4-0.3-2.9,0-4.1,0.7c-1.2,0.8-2.1,2-2.4,3.4     l-3,14.3c-0.3,1.6,0.1,3.2,1.1,4.4c1,1.2,2.5,2,4.1,2h11.8c0.8,0,1.4,0.6,1.4,1.4v14.7c0,2.1,1.7,3.8,3.8,3.8     c2.1,0,3.8-1.7,3.8-3.8V70.4C54.7,67.4,52.2,64.9,49.2,64.9z"></path><path d="M78.1,59.2c0.8,0,1.5-0.5,1.7-1.3l2.7-11.4c0.2-0.9-0.4-1.8-1.3-2c-0.9-0.2-1.8,0.4-2,1.3l-2.4,10.1H65.7     c-0.9,0-1.7,0.8-1.7,1.7c0,0.9,0.8,1.7,1.7,1.7H78.1z"></path><path d="M96.3,38.3L81,27.9V16c0-1-0.8-1.7-1.7-1.7H75c-1,0-1.7,0.8-1.7,1.7v6.7L51.5,7.9c-0.9-0.6-2.1-0.6-3,0L3.7,38.3     c-1.2,0.8-1.6,2.5-0.7,3.8c0.8,1.2,2.5,1.6,3.8,0.7L50,13.4l43.3,29.4c0.5,0.3,1,0.5,1.5,0.5c0.9,0,1.7-0.4,2.2-1.2     C97.9,40.9,97.6,39.2,96.3,38.3z"></path></g></g></g></svg>