<svg height='100px' width='100px'  fill="#000000" xmlns="http://www.w3.org/2000/svg" data-name="Layer 1" viewBox="0 0 100 100" x="0px" y="0px"><title>119all</title><path d="M91.78,41.42a2.48,2.48,0,0,0-.19-.32L91.46,41a2.49,2.49,0,0,0-.24-.25l-.07-.07L80.67,32V27.42a10.51,10.51,0,0,0-10.5-10.5H62.48L54.14,10a6.51,6.51,0,0,0-8.28,0l-8.34,6.89H29.83a10.51,10.51,0,0,0-10.5,10.5V32L8.84,40.63l-.07.07a2.5,2.5,0,0,0-.24.25l-.12.14a2.5,2.5,0,0,0-.19.32l-.07.13a2.48,2.48,0,0,0-.22,1V81a10.51,10.51,0,0,0,10.5,10.5H81.56A10.51,10.51,0,0,0,92.06,81V42.56a2.49,2.49,0,0,0-.22-1Zm-11.11-3,4.85,4-4.85,3.62ZM49,13.89a1.5,1.5,0,0,1,1.91,0l3.67,3H45.37ZM42.75,41.15H47.5V36.4a2.5,2.5,0,0,1,5,0v4.75h4.75a2.5,2.5,0,1,1,0,5H52.5V50.9a2.5,2.5,0,0,1-5,0V46.15H42.75a2.5,2.5,0,0,1,0-5ZM19.33,38.45v7.63l-4.85-3.62ZM87.06,81a5.51,5.51,0,0,1-5.5,5.5H18.44a5.51,5.51,0,0,1-5.5-5.5V47.54l7,5.2a2.49,2.49,0,0,0,1,.73L46.11,72.28a6.54,6.54,0,0,0,7.77,0L79.11,53.48a2.49,2.49,0,0,0,1-.73l7-5.2Z"></path></svg>