<svg height='100px' width='100px'  fill="#000000" xmlns:dc="http://purl.org/dc/elements/1.1/" xmlns:cc="http://creativecommons.org/ns#" xmlns:rdf="http://www.w3.org/1999/02/22-rdf-syntax-ns#" xmlns:svg="http://www.w3.org/2000/svg" xmlns="http://www.w3.org/2000/svg" xmlns:sodipodi="http://sodipodi.sourceforge.net/DTD/sodipodi-0.dtd" xmlns:inkscape="http://www.inkscape.org/namespaces/inkscape" version="1.1" x="0px" y="0px" viewBox="0 0 100 100"><g transform="translate(0,-952.36218)"><path style="text-indent:0;text-transform:none;direction:ltr;block-progression:tb;baseline-shift:baseline;color:#000000;enable-background:accumulate;" d="m 49.265612,958.36218 c -10.7407,0 -18.97,10.497 -18.97,23 0,12.5029 8.2293,23.00002 18.97,23.00002 10.7411,0 19.0012,-10.49712 19.0012,-23.00002 0,-12.503 -8.2601,-23 -19.0012,-23 z m -8.1568,48.00002 c -15.5638,2.0312 -28.139,9.0822 -31.0332,19.1562 -0.1007995,0.3552 -0.1007995,0.7386 0,1.0938 1.7138,5.9654 6.9401,10.8476 14.0009,14.2812 7.0608,3.4336 16.0647,5.4688 25.9079,5.4688 9.8433,0 18.8782,-2.0352 25.9391,-5.4688 7.0608,-3.4336 12.2871,-8.3158 14.0008,-14.2812 0.100901,-0.3552 0.100901,-0.7386 0,-1.0938 -2.893899,-10.0741 -15.4689,-17.125 -31.0331,-19.1562 -0.6429,-0.082 -1.3199,0.1714 -1.750099,0.6562 l -7.1567,8.1875 -7.1255,-8.1875 c -0.4302,-0.4848 -1.1072,-0.7385 -1.7501,-0.6562 z m 23.814,13.25 4.0002,0 0,6 6.0004,0 0,4 -6.0004,0 0,6 -4.0002,0 0,-6 -6.0004,0 0,-4 6.0004,0 0,-6 z" fill="#000000" fill-opacity="1" stroke="none" marker="none" visibility="visible" display="inline" overflow="visible"></path></g></svg>