<svg height='100px' width='100px'  fill="#000000" xmlns="http://www.w3.org/2000/svg" xmlns:xlink="http://www.w3.org/1999/xlink" version="1.1" x="0px" y="0px" viewBox="0 0 100 100" enable-background="new 0 0 100 100" xml:space="preserve"><g><path d="M95.09,56.04c-0.18-0.66-0.6-1.22-1.2-1.56c-0.39-0.23-0.83-0.351-1.279-0.351c-0.92,0-1.771,0.5-2.23,1.29L78.64,75.75   c-0.71,1.23-0.29,2.81,0.94,3.51c0.39,0.23,0.84,0.351,1.28,0.351c0.92,0,1.77-0.49,2.229-1.29l11.74-20.33   C95.17,57.39,95.27,56.7,95.09,56.04z"></path><path d="M9.62,68.57c-0.46-0.801-1.32-1.29-2.23-1.29c-0.45,0-0.89,0.12-1.28,0.34c-1.23,0.71-1.65,2.29-0.94,3.51l11.74,20.34   c0.45,0.79,1.31,1.28,2.22,1.28c0.45,0,0.9-0.12,1.29-0.34c1.22-0.71,1.64-2.28,0.94-3.51L9.62,68.57z"></path><path d="M26.87,12.38h23.48c1.419,0,2.57-1.15,2.57-2.57c0-1.41-1.15-2.57-2.56-2.57H26.87c-1.41,0-2.57,1.16-2.57,2.57   C24.3,11.23,25.46,12.38,26.87,12.38z"></path><path d="M50.36,13.99H28.49c-2.23,0-4.04,1.81-4.04,4.03v5.6c0.02,0.07,0.04,0.14,0.04,0.22v19.94c0,1.62,1.31,2.93,2.93,2.93   c1.61,0,2.93-1.31,2.93-2.93V32.71c0-0.44,0.36-0.8,0.8-0.8s0.81,0.36,0.81,0.8v19.94c0,1.619,1.31,2.93,2.92,2.93   c0.55,0,1.07-0.15,1.52-0.43c-0.74-1.36-0.73-3.021,0.07-4.41c0.33-0.57,0.77-1.05,1.31-1.43V34.57c0-0.08,0.01-0.15,0.03-0.22   v-0.69c0-0.44,0.36-0.8,0.8-0.8c0.45,0,0.81,0.36,0.81,0.8v14.92c0.77-0.17,1.57-0.14,2.33,0.1c-0.24-1.1-0.07-2.24,0.5-3.22   c0.07-0.13,0.15-0.25,0.23-0.37c0.66-0.92,1.64-1.57,2.76-1.8v-8.92c0-0.44,0.36-0.8,0.8-0.8c0.45,0,0.81,0.36,0.81,0.8v8.87   c0.08,0.01,0.16,0.03,0.25,0.04v-0.01c-0.28-1.13-0.11-2.31,0.48-3.32c0.6-1.05,1.58-1.8,2.75-2.11c0.79-0.22,1.61-0.2,2.38,0.01   v-7.48c0-1.98,1.62-3.6,3.61-3.6c0.97,0,1.899,0.4,2.569,1.09l0.011,0.01l4.199,4.12c0.561,0.56,1.29,0.87,2.07,0.87   c0.79,0,1.521-0.31,2.07-0.86c1.149-1.14,1.149-3,0-4.14L52.67,13.29C52.01,13.73,51.21,13.99,50.36,13.99z"></path><path d="M88.18,56.01c0.54-0.93,0.69-2.02,0.41-3.06s-0.95-1.91-1.88-2.45l-4.85-2.8c-0.07-0.02-0.141-0.04-0.21-0.08L64.38,37.65   c-1.399-0.81-3.189-0.32-4,1.07c-0.39,0.68-0.49,1.47-0.29,2.23c0.2,0.75,0.69,1.38,1.36,1.77l9.59,5.54   c0.38,0.22,0.52,0.71,0.29,1.1c-0.22,0.38-0.71,0.51-1.1,0.29l-0.811-0.47h-0.01l-8.76-5.06l-7.681-4.44   c-0.68-0.39-1.47-0.49-2.22-0.29c-0.76,0.2-1.39,0.69-1.78,1.36c-0.39,0.67-0.49,1.45-0.3,2.2c0,0.01,0,0.02,0,0.02v0.01   c0.17,0.61,0.52,1.14,1.01,1.53l16.03,9.25c0.07,0.04,0.13,0.09,0.18,0.15l0.591,0.34c0.39,0.22,0.52,0.71,0.3,1.1   c-0.15,0.25-0.42,0.4-0.7,0.4c-0.14,0-0.271-0.03-0.4-0.11l-16.45-9.49c-0.16-0.09-0.31-0.2-0.45-0.31c-0.01,0-0.01,0-0.01-0.01   l-1.13-0.64c-0.48-0.28-1.02-0.41-1.56-0.39c-0.05,0-0.11,0-0.15,0.01H45.9c-0.85,0.08-1.62,0.52-2.11,1.22   c-0.06,0.08-0.1,0.15-0.15,0.23c-0.39,0.68-0.49,1.47-0.29,2.22c0.2,0.76,0.69,1.39,1.36,1.78l1.73,0.99l0.48,0.28   c0.02,0.01,0.04,0.02,0.05,0.029l6.81,3.94c0.02,0,0.029,0.01,0.04,0.02l0.09,0.051l8.24,4.76c0.39,0.22,0.52,0.71,0.3,1.1   c-0.15,0.25-0.42,0.4-0.7,0.4c-0.14,0-0.27-0.03-0.4-0.11l-2.21-1.27c0,0-0.01,0-0.01-0.01l-6.09-3.511   c0-0.01-0.021-0.01-0.03-0.02l-6.89-3.98c-0.02-0.01-0.03-0.02-0.05-0.029L45.03,52.3l-1.12-0.64c0-0.01,0-0.01,0-0.01l-2.05-1.18   c-0.89-0.51-1.96-0.52-2.86-0.03c-0.02,0.01-0.03,0.01-0.04,0.02c-0.46,0.25-0.84,0.63-1.1,1.08c-0.6,1.05-0.51,2.34,0.25,3.29   c0.23,0.29,0.51,0.53,0.82,0.71l8,4.62l14.959,8.63c0,0.01,0,0.01,0,0.01c0.83,0.48,1.42,1.26,1.67,2.19   c0.24,0.93,0.11,1.899-0.369,2.729c-0.48,0.84-1.29,1.45-2.221,1.69c-0.01,0-0.01,0-0.01,0l-5.68,1.57   c-0.761,0.21-1.391,0.689-1.78,1.369c-0.39,0.681-0.5,1.471-0.29,2.221c0.2,0.76,0.68,1.39,1.36,1.779   c0.68,0.391,1.47,0.49,2.22,0.29l19.91-5.33c-0.05-0.8,0.12-1.619,0.55-2.359L88.18,56.02V56.01z"></path><path d="M36.42,74.33l9.59-5.53c0.01-0.01,0.02-0.01,0.04-0.02l6.29-3.641l-5.82-3.359l-11.4,6.59c-0.07,0.04-0.15,0.06-0.22,0.08   l-0.58,0.34c-0.13,0.07-0.27,0.11-0.4,0.11c-0.28,0-0.55-0.15-0.7-0.41c-0.23-0.38-0.09-0.87,0.29-1.101l11.37-6.56l-5.83-3.36   l-5.61,3.25c-0.01,0-0.02,0-0.02,0.011L31.21,62c-0.12,0.07-0.26,0.1-0.4,0.1c-0.28,0-0.55-0.14-0.69-0.399   c-0.23-0.38-0.1-0.87,0.29-1.101l7.1-4.1c-0.03-0.02-0.07-0.05-0.1-0.08c-0.74,0.5-1.62,0.771-2.53,0.771   c-2.1,0-3.88-1.45-4.39-3.391l-6.47,3.73c-0.55,0.319-1.16,0.479-1.78,0.479c-0.32,0-0.64-0.04-0.96-0.13   c-0.93-0.25-1.7-0.85-2.18-1.68c-0.49-0.84-0.61-1.851-0.35-2.771c0-0.01,0-0.01,0-0.01l1.48-5.7c0.2-0.76,0.1-1.55-0.29-2.23   c-0.39-0.68-1.02-1.16-1.78-1.36c-1.56-0.42-3.17,0.51-3.59,2.07L9.24,66.1c0.73,0.37,1.35,0.931,1.77,1.66L21.94,86.69v0.01   c0.54,0.93,1.41,1.6,2.45,1.88s2.13,0.13,3.07-0.41l4.84-2.79c0.05-0.06,0.11-0.11,0.17-0.14l17.27-9.971   c1.399-0.81,1.88-2.609,1.069-4.01c-0.39-0.67-1.02-1.16-1.77-1.359c-0.76-0.2-1.54-0.101-2.22,0.29c0,0-0.01,0.01-0.02,0.01   l-8.75,5.05l-0.82,0.48c-0.13,0.069-0.27,0.109-0.4,0.109c-0.28,0-0.55-0.149-0.7-0.41C35.91,75.05,36.04,74.56,36.42,74.33z"></path></g></svg>