<svg height='100px' width='100px'  fill="#000000" xmlns="http://www.w3.org/2000/svg" xmlns:xlink="http://www.w3.org/1999/xlink" version="1.1" x="0px" y="0px" viewBox="0 0 64 64" enable-background="new 0 0 64 64" xml:space="preserve"><g><path d="M49.086,36.336c-0.701-0.29-1.428-0.427-2.142-0.427c-2.195,0.001-4.277,1.301-5.17,3.456   c-1.182,2.855,0.173,6.128,3.029,7.311c0.701,0.29,1.427,0.427,2.141,0.426c2.195-0.001,4.278-1.301,5.17-3.455   C53.298,40.792,51.942,37.518,49.086,36.336z"></path><polygon points="37.741,4.361 37.741,4.361 30.231,1.25 28.851,4.58 31.591,5.715 25.411,20.634 27.202,21.376 25.155,26.317    28.135,27.551 28.135,27.55 28.135,27.55 31.114,28.784 33.16,23.843 34.95,24.585 41.13,9.667 43.871,10.802 45.249,7.472  "></polygon><polygon points="13.928,42.597 17.258,43.976 18.854,40.121 21.992,41.42 21.992,41.42 31.709,45.445 33.089,42.114 23.371,38.09    23.371,38.09 13.653,34.065 12.274,37.395 15.525,38.742  "></polygon><g><path d="M47.842,55.353H37.287c3.644-1.245,6.957-3.423,9.557-6.376c-0.948-0.012-1.877-0.201-2.759-0.567    c-1.365-0.565-2.472-1.492-3.26-2.623c-4.392,4.066-10.92,5.459-16.803,3.022l-10.813-4.479l-2.502,6.041L21.52,54.85    c0.441,0.183,0.885,0.35,1.331,0.503h-6.693c-3.319,0-6.008,2.69-6.008,6.008v1.389H32h21.85v-1.389    C53.851,58.043,51.161,55.353,47.842,55.353z"></path><path d="M45.875,34.109c0.35-0.05,0.707-0.077,1.068-0.077c0.985,0,1.947,0.192,2.861,0.57l0,0    c0.963,0.399,1.814,0.983,2.517,1.711c0.822-8.648-3.494-17.193-11.264-21.567l-2.528,6.104    C43.124,23.757,45.836,28.815,45.875,34.109z"></path></g></g></svg>