<svg width="56" height="46" viewBox="0 0 56 46" fill="none" xmlns="http://www.w3.org/2000/svg">
<path d="M25.0474 8.75259C22.9674 10.3993 20.9741 12.6093 19.0674 15.3826C17.2474 18.1559 15.8608 21.0593 14.9074 24.0926C15.2541 24.0059 15.7308 23.9626 16.3374 23.9626C18.6774 23.9626 20.6708 24.8726 22.3174 26.6926C24.0508 28.5126 24.9174 30.8959 24.9174 33.8426C24.9174 37.3093 23.7474 40.1259 21.4074 42.2926C19.1541 44.3726 16.2508 45.4126 12.6974 45.4126C9.05744 45.4126 6.11077 44.1559 3.85744 41.6426C1.69077 39.0426 0.607439 35.6626 0.607439 31.5026C0.607439 26.0426 2.16744 20.4093 5.28744 14.6026C8.40744 8.79592 12.5241 4.02926 17.6374 0.302586L25.0474 8.75259ZM47.0174 23.9626C49.4441 23.9626 51.4808 24.8726 53.1274 26.6926C54.7741 28.5126 55.5974 30.8959 55.5974 33.8426C55.5974 37.3093 54.4708 40.1259 52.2174 42.2926C49.9641 44.3726 47.0608 45.4126 43.5074 45.4126C39.8674 45.4126 36.9208 44.1559 34.6674 41.6426C32.4141 39.0426 31.2874 35.6626 31.2874 31.5026C31.2874 26.1293 32.8474 20.5393 35.9674 14.7326C39.1741 8.83926 43.2908 4.02926 48.3174 0.302586L55.7274 8.75259C53.6474 10.4859 51.6541 12.7393 49.7474 15.5126C47.9274 18.1993 46.5841 21.0593 45.7174 24.0926C45.9774 24.0059 46.4108 23.9626 47.0174 23.9626Z" fill="black"/>
</svg>
